<?xml version="1.0" standalone="yes"?>
<svg xmlns="http://www.w3.org/2000/svg" width="500" height="500">
<path style="fill:#010101; stroke:none;" d="M0 0L0 500L500 500L500 0L0 0z"/>
<path style="fill:#afafaf; stroke:none;" d="M323 107L321 104L354 103L353 107L354 107L355 102C347.546 100.936 339.56 102.086 332 101.996C329.277 101.964 324.983 100.61 322.453 101.692C319.475 102.966 321.68 105.624 323 107z"/>
<path style="fill:#909090; stroke:none;" d="M324 102L325 103L324 102M322 103L321 105L322 103z"/>
<path style="fill:#787878; stroke:none;" d="M323 107L324 107L323 104L353 104L351 108L352 108L354 104C348.604 102.405 322.879 100.115 323 107z"/>
<path style="fill:#909090; stroke:none;" d="M353 103L354 104L353 103z"/>
<path style="fill:#484848; stroke:none;" d="M323 104C327.765 120.708 326 138.615 326 156L326 241C326 264.491 330.438 293.157 325 316L296 302L282 295.755L268 301.5L238 316C234.862 302.82 241.45 285.466 236.397 273.105C233.013 264.829 215.756 264.477 214.148 274.055C209.93 299.18 214 328.488 214 354L262 330.742L281 321.885L301 330.752L349 354L349 184C349 159.243 343.573 127.102 353 104L323 104z"/>
<path style="fill:#909090; stroke:none;" d="M353 105L354 106L353 105M323.333 107.667L323.667 108.333L323.333 107.667M352 107L353 108L352 107z"/>
<path style="fill:#787878; stroke:none;" d="M324 108L325 114L326 114L324 108z"/>
<path style="fill:#909090; stroke:none;" d="M351 108L352 109L351 108z"/>
<path style="fill:#afafaf; stroke:none;" d="M323 109L324 110L323 109z"/>
<path style="fill:#787878; stroke:none;" d="M350 109L350 112L351 112L350 109z"/>
<path style="fill:#afafaf; stroke:none;" d="M351 109L351 112L352 112L351 109z"/>
<path style="fill:#909090; stroke:none;" d="M324 110L325 111L324 110z"/>
<path style="fill:#afafaf; stroke:none;" d="M324 111L324 139L325 139L324 111z"/>
<path style="fill:#909090; stroke:none;" d="M350 112L350 295L350 339C350 344.062 351.716 351.943 347 355L347 356C352.672 354.117 351 346.988 351 342L351 300L351 168L351 130C351 124.381 352.189 117.216 350 112z"/>
<path style="fill:#787878; stroke:none;" d="M349 113L349 354L327 344L327 345L350 355L350 184L350 135L349 113z"/>
<path style="fill:#909090; stroke:none;" d="M325.333 114.667L325.667 115.333L325.333 114.667z"/>
<path style="fill:#787878; stroke:none;" d="M325 116L325 307L326 307L326 173L326 134L325 116z"/>
<path style="fill:#afafaf; stroke:none;" d="M264 136L265 136C271.457 131.108 290.298 133.166 298 135L296 139C297.695 137.321 300.03 134.234 296.677 132.607C294.117 131.365 290.658 132.578 288 132.83C281.928 133.408 266.161 129.51 264 136z"/>
<path style="fill:#909090; stroke:none;" d="M265 134L265 137L266 137L265 134z"/>
<path style="fill:#787878; stroke:none;" d="M266 134L267 139L268 139L267 136L296 136L295 139C297.815 134.872 293.688 134.074 289.999 134.005C281.834 133.851 274.164 134.644 266 134z"/>
<path style="fill:#909090; stroke:none;" d="M270 134L270 135L280 135L270 134M296 134L297 135L296 134M297.333 135.667L297.667 136.333L297.333 135.667z"/>
<path style="fill:#484848; stroke:none;" d="M267 136C274.036 160.671 270 190.306 270 216C270 220.487 272.556 239.715 267.682 241.583C264.445 242.823 258.812 238.95 256 237.575C247.273 233.308 235.696 224.052 226 223.052C221.47 222.586 216.907 226.311 213 228.16C202.576 233.095 191.96 238.181 182 244C179.038 231.561 178.594 210.584 184 199L155 198L154 199C160.615 216.177 157 238.742 157 257C157 261.997 154.622 275.465 158.028 279.353C160.983 282.726 171.945 275.113 175 273.54C185.603 268.079 196.395 263.026 207 257.576C212.131 254.939 218.193 250.121 224 249.356C230.297 248.528 238.585 255.044 244 257.753C260.03 265.773 275.895 274.139 292 282C295.193 271.199 293 257.248 293 246L293 180C293 165.016 291.892 150.402 296 136L267 136z"/>
<path style="fill:#afafaf; stroke:none;" d="M265 137L266 138L265 137M266 138L267 139L266 138z"/>
<path style="fill:#909090; stroke:none;" d="M267.333 139.667L267.667 140.333L267.333 139.667M295 139L296 140L295 139z"/>
<path style="fill:#787878; stroke:none;" d="M268 140C272.523 164.366 269 192.222 269 217C269 223.338 271.788 238.248 266 242L266 243C272.88 240.717 270 226.06 270 220L270 163C270 156.173 271.969 145.809 268 140M294 140L293 177L293 249L292 282L284 278L284 279L293 283C297.099 269.132 294 250.465 294 236L294 170C294 160.814 296.108 148.775 294 140z"/>
<path style="fill:#afafaf; stroke:none;" d="M295 140L295 143L296 143L295 140M267.333 141.667L267.667 142.333L267.333 141.667z"/>
<path style="fill:#909090; stroke:none;" d="M268.333 142.667L268.667 143.333L268.333 142.667M294 142L294 145L295 145L294 142z"/>
<path style="fill:#afafaf; stroke:none;" d="M268 144L268 240L269 240L269 173L268 144M294 145L294 151L295 151L294 145z"/>
<path style="fill:#909090; stroke:none;" d="M294 151L295 152L294 151z"/>
<path style="fill:#afafaf; stroke:none;" d="M294 152L294 239L293 284L294 284L295 252L295 188L294 152M211 171L210 165L242 166L239 173C249.517 160.703 225.957 164 219 164C216.371 164 211.809 163.201 209.623 165.027C207.203 167.047 209.488 169.502 211 171z"/>
<path style="fill:#909090; stroke:none;" d="M209 167L212 166L209 167M213 165L213 166L241 166L240 169L241 169L242 166L213 165z"/>
<path style="fill:#787878; stroke:none;" d="M209 167L212 175L213 175L210 167L240 167L239 170L240 170L241 166L209 167z"/>
<path style="fill:#484848; stroke:none;" d="M210 167C215.615 180.76 214 195.351 214 210C223.943 206.387 226.075 206.388 236 210L240 167L210 167z"/>
<path style="fill:#909090; stroke:none;" d="M209 168L210 169L209 168M239 170L240 171L239 170z"/>
<path style="fill:#787878; stroke:none;" d="M238 171L237 176L238 176L238 171z"/>
<path style="fill:#909090; stroke:none;" d="M211 172L212 173L211 172z"/>
<path style="fill:#afafaf; stroke:none;" d="M211 173L211 176L212 176L211 173z"/>
<path style="fill:#909090; stroke:none;" d="M238.333 173.667L238.667 174.333L238.333 173.667M212 175C212 182.907 208.097 207.525 215 212L215 211C208.061 201.841 216.365 185.402 212 175z"/>
<path style="fill:#afafaf; stroke:none;" d="M238 175L237 212L238 212C240.565 203.324 241.514 183.374 238 175z"/>
<path style="fill:#787878; stroke:none;" d="M213 176L213 211L226 207.029L237 209C226.771 207.713 224.106 204.705 214 210L213 176z"/>
<path style="fill:#909090; stroke:none;" d="M237 176L237 211L238 211L237 176z"/>
<path style="fill:#afafaf; stroke:none;" d="M211 180L211 203L212 203L211 180M151 197L155 203L153 197L185 197L184 201L185 201L186 196L151 197z"/>
<path style="fill:#909090; stroke:none;" d="M153 197L153 198L185 198L153 197z"/>
<path style="fill:#787878; stroke:none;" d="M153 198L154 202L155 202L155 198L153 198M156 198L156 199L166 199L156 198M168.667 198.333L169.333 198.667L168.667 198.333M172 198L172 199L181 199L172 198M182 198L182 199L185 200L182 198z"/>
<path style="fill:#909090; stroke:none;" d="M153 200L154 201L153 200z"/>
<path style="fill:#787878; stroke:none;" d="M183 200L182 203L183 203L183 200z"/>
<path style="fill:#909090; stroke:none;" d="M183 201L184 202L183 201z"/>
<path style="fill:#787878; stroke:none;" d="M155.333 202.667L155.667 203.333L155.333 202.667z"/>
<path style="fill:#afafaf; stroke:none;" d="M183 202L184 203L183 202z"/>
<path style="fill:#909090; stroke:none;" d="M182.333 203.667L182.667 204.333L182.333 203.667M155 204L155 207L156 207L155 204z"/>
<path style="fill:#787878; stroke:none;" d="M181.333 204.667L181.667 205.333L181.333 204.667M156 205C156 229.408 151.35 259.27 157 283C174.769 277.881 193.944 266.173 210 257L210 256C197.253 260.568 185.04 267.878 173 274.059C169.918 275.641 162.853 280.8 159.318 279.557C154.992 278.037 157 264.647 157 261L157 223C157 217.381 158.189 210.216 156 205z"/>
<path style="fill:#afafaf; stroke:none;" d="M182 205L183 206L182 205z"/>
<path style="fill:#909090; stroke:none;" d="M181 206C181 213.417 177.159 239.397 185 242L185 241L182 241L181 206M224 206L224 207L227 207L224 206z"/>
<path style="fill:#afafaf; stroke:none;" d="M155 207L155 258L156 284L157 284C152.898 266.77 156 245.698 156 228C156 221.58 157.497 212.951 155 207M211.333 207.667L211.667 208.333L211.333 207.667z"/>
<path style="fill:#909090; stroke:none;" d="M222 207L223 208L222 207z"/>
<path style="fill:#afafaf; stroke:none;" d="M223 207L224 208L223 207M227 207L228 208L227 207z"/>
<path style="fill:#909090; stroke:none;" d="M228 207L229 208L228 207M220 208L221 209L220 208z"/>
<path style="fill:#afafaf; stroke:none;" d="M221 208L222 209L221 208z"/>
<path style="fill:#909090; stroke:none;" d="M229.667 208.333L230.333 208.667L229.667 208.333M218 209L219 210L218 209z"/>
<path style="fill:#afafaf; stroke:none;" d="M219 209L220 210L219 209M231 209L232 210L231 209z"/>
<path style="fill:#909090; stroke:none;" d="M232 209L233 210L232 209M216 210L217 211L216 210z"/>
<path style="fill:#afafaf; stroke:none;" d="M217 210L218 211L217 210M233 210L234 211L233 210M212 211L213 212L212 211M215 211L216 212L215 211M234 211L235 212L234 211z"/>
<path style="fill:#909090; stroke:none;" d="M235.667 211.333L236.333 211.667L235.667 211.333z"/>
<path style="fill:#afafaf; stroke:none;" d="M210 227L210 228L226 221L210 227z"/>
<path style="fill:#909090; stroke:none;" d="M224 221L224 222L227 222L224 221z"/>
<path style="fill:#afafaf; stroke:none;" d="M227 221L228 222L227 221z"/>
<path style="fill:#909090; stroke:none;" d="M222 222L223 223L222 222z"/>
<path style="fill:#787878; stroke:none;" d="M223 222L224 223L223 222M225 222L225 223L229 224L229 223L225 222z"/>
<path style="fill:#909090; stroke:none;" d="M228 222L231 224L231 223L228 222z"/>
<path style="fill:#afafaf; stroke:none;" d="M229 222L230 223L229 222z"/>
<path style="fill:#909090; stroke:none;" d="M220 223L221 224L220 223z"/>
<path style="fill:#787878; stroke:none;" d="M221.667 223.333L222.333 223.667L221.667 223.333z"/>
<path style="fill:#afafaf; stroke:none;" d="M231 223L231 224L234 225L231 223z"/>
<path style="fill:#909090; stroke:none;" d="M218 224L219 225L218 224z"/>
<path style="fill:#787878; stroke:none;" d="M219 224L220 225L219 224M230 224L230 225L233 226L230 224z"/>
<path style="fill:#909090; stroke:none;" d="M232 224L233 225L232 224M216 225L217 226L216 225z"/>
<path style="fill:#787878; stroke:none;" d="M217.667 225.333L218.333 225.667L217.667 225.333z"/>
<path style="fill:#909090; stroke:none;" d="M233.667 225.333L234.333 225.667L233.667 225.333z"/>
<path style="fill:#afafaf; stroke:none;" d="M235 225L235 226L238 227L235 225z"/>
<path style="fill:#787878; stroke:none;" d="M180 226L181 227L180 226z"/>
<path style="fill:#909090; stroke:none;" d="M214 226L215 227L214 226z"/>
<path style="fill:#787878; stroke:none;" d="M215.667 226.333L216.333 226.667L215.667 226.333M234 226L234 227L251 235L251 234L234 226z"/>
<path style="fill:#909090; stroke:none;" d="M236 226L237 227L236 226M212 227L213 228L212 227z"/>
<path style="fill:#787878; stroke:none;" d="M213.667 227.333L214.333 227.667L213.667 227.333z"/>
<path style="fill:#909090; stroke:none;" d="M237.667 227.333L238.333 227.667L237.667 227.333z"/>
<path style="fill:#afafaf; stroke:none;" d="M239 227L240 228L239 227M208 228L198 233L198 234L209 229L208 228z"/>
<path style="fill:#909090; stroke:none;" d="M208 230L211 229L208 230z"/>
<path style="fill:#787878; stroke:none;" d="M211.667 228.333L212.333 228.667L211.667 228.333z"/>
<path style="fill:#909090; stroke:none;" d="M240 228L241 229L240 228z"/>
<path style="fill:#afafaf; stroke:none;" d="M241 228L242 229L241 228z"/>
<path style="fill:#787878; stroke:none;" d="M209 229L210 230L209 229z"/>
<path style="fill:#909090; stroke:none;" d="M242 229L243 230L242 229z"/>
<path style="fill:#afafaf; stroke:none;" d="M243 229L244 230L243 229z"/>
<path style="fill:#909090; stroke:none;" d="M206 230L207 231L206 230z"/>
<path style="fill:#787878; stroke:none;" d="M207.667 230.333L208.333 230.667L207.667 230.333z"/>
<path style="fill:#909090; stroke:none;" d="M244 230L245 231L244 230z"/>
<path style="fill:#afafaf; stroke:none;" d="M245 230L246 231L245 230z"/>
<path style="fill:#909090; stroke:none;" d="M204 231L205 232L204 231z"/>
<path style="fill:#787878; stroke:none;" d="M205 231L206 232L205 231z"/>
<path style="fill:#909090; stroke:none;" d="M246 231L247 232L246 231z"/>
<path style="fill:#afafaf; stroke:none;" d="M247 231L248 232L247 231z"/>
<path style="fill:#909090; stroke:none;" d="M202 232L203 233L202 232z"/>
<path style="fill:#787878; stroke:none;" d="M203.667 232.333L204.333 232.667L203.667 232.333z"/>
<path style="fill:#909090; stroke:none;" d="M248 232L249 233L248 232z"/>
<path style="fill:#afafaf; stroke:none;" d="M249 232L250 233L249 232z"/>
<path style="fill:#909090; stroke:none;" d="M200 233L201 234L200 233z"/>
<path style="fill:#787878; stroke:none;" d="M201.667 233.333L202.333 233.667L201.667 233.333z"/>
<path style="fill:#909090; stroke:none;" d="M250 233L253 235L253 234L250 233z"/>
<path style="fill:#afafaf; stroke:none;" d="M251 233L252 234L251 233M196 234L188 238L188 239L197 235L196 234z"/>
<path style="fill:#909090; stroke:none;" d="M196 236L199 235L196 236z"/>
<path style="fill:#787878; stroke:none;" d="M199.667 234.333L200.333 234.667L199.667 234.333z"/>
<path style="fill:#afafaf; stroke:none;" d="M253 234L254 235L253 234z"/>
<path style="fill:#787878; stroke:none;" d="M197.667 235.333L198.333 235.667L197.667 235.333M252 235L252 236L265 242L265 241L252 235z"/>
<path style="fill:#909090; stroke:none;" d="M254 235L257 237L257 236L254 235z"/>
<path style="fill:#afafaf; stroke:none;" d="M255 235L256 236L255 235z"/>
<path style="fill:#909090; stroke:none;" d="M194 236L195 237L194 236z"/>
<path style="fill:#787878; stroke:none;" d="M195.667 236.333L196.333 236.667L195.667 236.333z"/>
<path style="fill:#afafaf; stroke:none;" d="M257 236L258 237L257 236z"/>
<path style="fill:#909090; stroke:none;" d="M192 237L193 238L192 237z"/>
<path style="fill:#787878; stroke:none;" d="M193.667 237.333L194.333 237.667L193.667 237.333z"/>
<path style="fill:#909090; stroke:none;" d="M258 237L259 238L258 237z"/>
<path style="fill:#afafaf; stroke:none;" d="M259 237L260 238L259 237z"/>
<path style="fill:#909090; stroke:none;" d="M190 238L191 239L190 238z"/>
<path style="fill:#787878; stroke:none;" d="M191 238L192 239L191 238z"/>
<path style="fill:#909090; stroke:none;" d="M260 238L261 239L260 238z"/>
<path style="fill:#afafaf; stroke:none;" d="M261 238L262 239L261 238M186 239L184 240L184 241L186 239z"/>
<path style="fill:#909090; stroke:none;" d="M186 241L189 240L186 241z"/>
<path style="fill:#787878; stroke:none;" d="M189.667 239.333L190.333 239.667L189.667 239.333z"/>
<path style="fill:#909090; stroke:none;" d="M262 239L263 240L262 239z"/>
<path style="fill:#afafaf; stroke:none;" d="M263 239L264 240L263 239z"/>
<path style="fill:#787878; stroke:none;" d="M187.667 240.333L188.333 240.667L187.667 240.333z"/>
<path style="fill:#afafaf; stroke:none;" d="M264.667 240.333L265.333 240.667L264.667 240.333z"/>
<path style="fill:#909090; stroke:none;" d="M268 240L265 241L265 242L268 240z"/>
<path style="fill:#787878; stroke:none;" d="M181 241L182 244L185 243L185 242L181 241M185.667 241.333L186.333 241.667L185.667 241.333M211 255L211 256L225.576 250.167L261 267C254.813 260.747 233.957 248.778 225 248.781C220.343 248.782 214.902 252.723 211 255z"/>
<path style="fill:#909090; stroke:none;" d="M225 249L226 250L225 249M222.667 250.333L223.333 250.667L222.667 250.333z"/>
<path style="fill:#afafaf; stroke:none;" d="M226 250L227 251L226 250z"/>
<path style="fill:#909090; stroke:none;" d="M227 250L228 251L227 250M220.667 251.333L221.333 251.667L220.667 251.333M228.667 251.333L229.333 251.667L228.667 251.333M218 252L219 253L218 252z"/>
<path style="fill:#afafaf; stroke:none;" d="M219 252L220 253L219 252M230 252L231 253L230 252z"/>
<path style="fill:#909090; stroke:none;" d="M231 252L232 253L231 252M216.667 253.333L217.333 253.667L216.667 253.333M232.667 253.333L233.333 253.667L232.667 253.333M214.667 254.333L215.333 254.667L214.667 254.333z"/>
<path style="fill:#afafaf; stroke:none;" d="M234 254L235 255L234 254z"/>
<path style="fill:#909090; stroke:none;" d="M235 254L236 255L235 254M213 255L214 256L213 255z"/>
<path style="fill:#afafaf; stroke:none;" d="M236 255L237 256L236 255z"/>
<path style="fill:#909090; stroke:none;" d="M237 255L238 256L237 255M210.667 256.333L211.333 256.667L210.667 256.333z"/>
<path style="fill:#afafaf; stroke:none;" d="M238 256L239 257L238 256z"/>
<path style="fill:#909090; stroke:none;" d="M239 256L240 257L239 256M209 257L210 258L209 257M240.667 257.333L241.333 257.667L240.667 257.333M207 258L208 259L207 258z"/>
<path style="fill:#afafaf; stroke:none;" d="M242 258L243 259L242 258z"/>
<path style="fill:#909090; stroke:none;" d="M243 258L244 259L243 258M205 259L206 260L205 259M245 259L246 260L245 259M202.667 260.333L203.333 260.667L202.667 260.333M246.667 260.333L247.333 260.667L246.667 260.333M201 261L202 262L201 261z"/>
<path style="fill:#afafaf; stroke:none;" d="M248 261L249 262L248 261z"/>
<path style="fill:#909090; stroke:none;" d="M249 261L250 262L249 261M199 262L200 263L199 262z"/>
<path style="fill:#afafaf; stroke:none;" d="M250 262L251 263L250 262z"/>
<path style="fill:#909090; stroke:none;" d="M251 262L252 263L251 262M197 263L198 264L197 263z"/>
<path style="fill:#afafaf; stroke:none;" d="M252 263L253 264L252 263z"/>
<path style="fill:#909090; stroke:none;" d="M253 263L254 264L253 263M195 264L196 265L195 264z"/>
<path style="fill:#afafaf; stroke:none;" d="M223 264L224 265L223 264z"/>
<path style="fill:#909090; stroke:none;" d="M220 266L220 267L226 265L220 266z"/>
<path style="fill:#afafaf; stroke:none;" d="M226 264L227 265L226 264z"/>
<path style="fill:#909090; stroke:none;" d="M254.667 264.333L255.333 264.667L254.667 264.333M193 265L194 266L193 265z"/>
<path style="fill:#787878; stroke:none;" d="M224 265L224 266L228 267L228 266L224 265z"/>
<path style="fill:#909090; stroke:none;" d="M227 265L230 267L230 266L227 265z"/>
<path style="fill:#afafaf; stroke:none;" d="M228 265L229 266L228 265z"/>
<path style="fill:#909090; stroke:none;" d="M256.667 265.333L257.333 265.667L256.667 265.333M190.667 266.333L191.333 266.667L190.667 266.333z"/>
<path style="fill:#afafaf; stroke:none;" d="M192 266L193 267L192 266M219 266L220 267L219 266z"/>
<path style="fill:#787878; stroke:none;" d="M222.667 266.333L223.333 266.667L222.667 266.333z"/>
<path style="fill:#afafaf; stroke:none;" d="M230 266L231 267L230 266z"/>
<path style="fill:#909090; stroke:none;" d="M258.667 266.333L259.333 266.667L258.667 266.333M189 267L190 268L189 267M218 267L217 269L218 267z"/>
<path style="fill:#787878; stroke:none;" d="M218 268L218 269L222 268L218 268M229 267L229 268L232 269L229 267z"/>
<path style="fill:#909090; stroke:none;" d="M231 267L234 269L234 268L231 267z"/>
<path style="fill:#afafaf; stroke:none;" d="M232 267L233 268L232 267M260 267L261 268L260 267z"/>
<path style="fill:#909090; stroke:none;" d="M261 267L261 268L275 275L275 274L261 267z"/>
<path style="fill:#787878; stroke:none;" d="M262.667 267.333L263.333 267.667L262.667 267.333z"/>
<path style="fill:#909090; stroke:none;" d="M187 268L188 269L187 268z"/>
<path style="fill:#afafaf; stroke:none;" d="M188 268L189 269L188 268M216 268L217 269L216 268M234 268L235 269L234 268z"/>
<path style="fill:#787878; stroke:none;" d="M264.667 268.333L265.333 268.667L264.667 268.333z"/>
<path style="fill:#909090; stroke:none;" d="M185 269L186 270L185 269z"/>
<path style="fill:#afafaf; stroke:none;" d="M186 269L187 270L186 269z"/>
<path style="fill:#909090; stroke:none;" d="M213 271L216 270L213 271z"/>
<path style="fill:#787878; stroke:none;" d="M216.667 269.333L217.333 269.667L216.667 269.333M233 269L233 270L237 272L233 269z"/>
<path style="fill:#909090; stroke:none;" d="M235 269C240.242 281.37 237 299.677 237 313L238 313C238 302.589 242.61 276.453 235 269z"/>
<path style="fill:#afafaf; stroke:none;" d="M236 269L237 270L236 269z"/>
<path style="fill:#787878; stroke:none;" d="M266.667 269.333L267.333 269.667L266.667 269.333z"/>
<path style="fill:#909090; stroke:none;" d="M183 270L184 271L183 270z"/>
<path style="fill:#afafaf; stroke:none;" d="M184 270L185 271L184 270z"/>
<path style="fill:#787878; stroke:none;" d="M214 270L215 271L214 270z"/>
<path style="fill:#afafaf; stroke:none;" d="M237 270L238 271L237 270z"/>
<path style="fill:#787878; stroke:none;" d="M268.667 270.333L269.333 270.667L268.667 270.333z"/>
<path style="fill:#909090; stroke:none;" d="M181 271L182 272L181 271z"/>
<path style="fill:#afafaf; stroke:none;" d="M182 271L183 272L182 271M212 271L213 272L212 271z"/>
<path style="fill:#787878; stroke:none;" d="M213 271L213 355C230.025 352.059 248.544 338.481 264 330.753C268.827 328.339 275.556 323.185 281 322.889C285.564 322.641 291.052 326.779 295 328.753C305.256 333.881 315.415 339.593 326 344L326 343L296 327.742L281 321.487L261 330.742L214 354L214 297L213 271M270.667 271.333L271.333 271.667L270.667 271.333z"/>
<path style="fill:#909090; stroke:none;" d="M179 272L180 273L179 272z"/>
<path style="fill:#afafaf; stroke:none;" d="M180 272L181 273L180 272z"/>
<path style="fill:#909090; stroke:none;" d="M212 272L212 336C212 343.536 208.665 358.011 220 354L220 353L213 355L213 298L212 272z"/>
<path style="fill:#afafaf; stroke:none;" d="M238 272L238 305L239 305L238 272z"/>
<path style="fill:#787878; stroke:none;" d="M272 272L273 273L272 272z"/>
<path style="fill:#909090; stroke:none;" d="M177 273L178 274L177 273z"/>
<path style="fill:#afafaf; stroke:none;" d="M178.667 273.333L179.333 273.667L178.667 273.333M211 273L211 291L212 291L211 273z"/>
<path style="fill:#787878; stroke:none;" d="M274 273L274 274L283 278L283 277L274 273z"/>
<path style="fill:#909090; stroke:none;" d="M175 274L176 275L175 274z"/>
<path style="fill:#afafaf; stroke:none;" d="M176.667 274.333L177.333 274.667L176.667 274.333z"/>
<path style="fill:#909090; stroke:none;" d="M173 275L174 276L173 275z"/>
<path style="fill:#afafaf; stroke:none;" d="M174.667 275.333L175.333 275.667L174.667 275.333z"/>
<path style="fill:#909090; stroke:none;" d="M276 275L277 276L276 275M171 276L172 277L171 276z"/>
<path style="fill:#afafaf; stroke:none;" d="M172 276L173 277L172 276z"/>
<path style="fill:#909090; stroke:none;" d="M278.667 276.333L279.333 276.667L278.667 276.333M169 277L170 278L169 277z"/>
<path style="fill:#afafaf; stroke:none;" d="M170 277L171 278L170 277z"/>
<path style="fill:#909090; stroke:none;" d="M280.667 277.333L281.333 277.667L280.667 277.333M167 278L168 279L167 278z"/>
<path style="fill:#afafaf; stroke:none;" d="M168 278L169 279L168 278z"/>
<path style="fill:#909090; stroke:none;" d="M282.667 278.333L283.333 278.667L282.667 278.333M165 279L166 280L165 279z"/>
<path style="fill:#afafaf; stroke:none;" d="M166 279L167 280L166 279z"/>
<path style="fill:#909090; stroke:none;" d="M284 279L285 280L284 279M163 280L164 281L163 280z"/>
<path style="fill:#afafaf; stroke:none;" d="M164 280L165 281L164 280z"/>
<path style="fill:#909090; stroke:none;" d="M286 280L287 281L286 280M156.333 281.667L156.667 282.333L156.333 281.667M161 281L162 282L161 281z"/>
<path style="fill:#afafaf; stroke:none;" d="M162 281L163 282L162 281z"/>
<path style="fill:#909090; stroke:none;" d="M288 281L289 282L288 281M159 282L160 283L159 282z"/>
<path style="fill:#afafaf; stroke:none;" d="M160.667 282.333L161.333 282.667L160.667 282.333z"/>
<path style="fill:#909090; stroke:none;" d="M290 282L291 283L290 282M293 282L294 283L293 282M157 283L158 284L157 283z"/>
<path style="fill:#afafaf; stroke:none;" d="M158.667 283.333L159.333 283.667L158.667 283.333M291 283L292 284L291 283z"/>
<path style="fill:#909090; stroke:none;" d="M292 283L293 284L292 283z"/>
<path style="fill:#afafaf; stroke:none;" d="M238 312C241.118 315.221 246.654 310.92 250 309.247C259.039 304.728 270.051 296.589 280 294.742C288.398 293.183 301.334 303.809 309 307C305.897 303.864 301.926 302.21 298 300.247C293.106 297.8 286.67 293.01 281 293.318C265.757 294.146 253.412 311.229 238 312z"/>
<path style="fill:#909090; stroke:none;" d="M279 294L280 295L279 294z"/>
<path style="fill:#787878; stroke:none;" d="M263 303L263 304L282 296.242L300 304C287.847 291.718 276.245 295.27 263 303z"/>
<path style="fill:#909090; stroke:none;" d="M283 294L284 295L283 294M277 295L278 296L277 295M285 295L286 296L285 295M275.667 296.333L276.333 296.667L275.667 296.333M287 296L288 297L287 296M273 297L274 298L273 297M289 297L290 298L289 297M271 298L272 299L271 298M291 298L292 299L291 298M269 299L270 300L269 299M293 299L294 300L293 299M267 300L268 301L267 300M295 300L296 301L295 300M265 301L266 302L265 301M297 301L298 302L297 301M263 302L264 303L263 302M299 302L300 303L299 302M261.667 303.333L262.333 303.667L261.667 303.333M300.667 303.333L301.333 303.667L300.667 303.333M259 304L257 305L257 306L259 304z"/>
<path style="fill:#787878; stroke:none;" d="M259 306L262 304L259 306M301 304L304 306L301 304z"/>
<path style="fill:#909090; stroke:none;" d="M303 304L304 305L303 304M304.667 305.333L305.333 305.667L304.667 305.333M255 306L253 307L253 308L255 306z"/>
<path style="fill:#787878; stroke:none;" d="M256.667 306.333L257.333 306.667L256.667 306.333M305 306L305 307L308 308L305 306z"/>
<path style="fill:#909090; stroke:none;" d="M307 306L308 307L307 306z"/>
<path style="fill:#787878; stroke:none;" d="M255 307L256 308L255 307z"/>
<path style="fill:#909090; stroke:none;" d="M308.667 307.333L309.333 307.667L308.667 307.333z"/>
<path style="fill:#afafaf; stroke:none;" d="M310 307L310 308L313 309L310 307z"/>
<path style="fill:#909090; stroke:none;" d="M325.333 307.667L325.667 308.333L325.333 307.667M251 308L252 309L251 308z"/>
<path style="fill:#787878; stroke:none;" d="M252.667 308.333L253.333 308.667L252.667 308.333M309 308L309 309L314 311L314 310L309 308z"/>
<path style="fill:#909090; stroke:none;" d="M311 308L312 309L311 308M249 309L250 310L249 309z"/>
<path style="fill:#787878; stroke:none;" d="M250.667 309.333L251.333 309.667L250.667 309.333z"/>
<path style="fill:#909090; stroke:none;" d="M312 309L312 310L318 312L318 311L312 309z"/>
<path style="fill:#afafaf; stroke:none;" d="M314.667 309.333L315.333 309.667L314.667 309.333z"/>
<path style="fill:#787878; stroke:none;" d="M325 309L325 315L321 314L321 315L325 316L325 309z"/>
<path style="fill:#909090; stroke:none;" d="M247 310L248 311L247 310z"/>
<path style="fill:#787878; stroke:none;" d="M248.667 310.333L249.333 310.667L248.667 310.333z"/>
<path style="fill:#afafaf; stroke:none;" d="M316.667 310.333L317.333 310.667L316.667 310.333z"/>
<path style="fill:#909090; stroke:none;" d="M245 311L246 312L245 311z"/>
<path style="fill:#787878; stroke:none;" d="M246.667 311.333L247.333 311.667L246.667 311.333M315 311L316 312L315 311z"/>
<path style="fill:#afafaf; stroke:none;" d="M318 311L318 312L321 313L318 311M324 311L322 313L322 314C324.251 313.527 325.118 313.14 324 311z"/>
<path style="fill:#909090; stroke:none;" d="M243 312L244 313L243 312z"/>
<path style="fill:#787878; stroke:none;" d="M244.667 312.333L245.333 312.667L244.667 312.333M316 312L316 313L320 314L320 313L316 312z"/>
<path style="fill:#909090; stroke:none;" d="M319 312L320 313L319 312z"/>
<path style="fill:#787878; stroke:none;" d="M237 313L238 316L244 314L244 313L237 313z"/>
<path style="fill:#909090; stroke:none;" d="M241 313L242 314L241 313M320.667 313.333L321.333 313.667L320.667 313.333M238.667 314.333L239.333 314.667L238.667 314.333M323.667 314.333L324.333 314.667L323.667 314.333M278 323L278 324L283 323L278 323z"/>
<path style="fill:#afafaf; stroke:none;" d="M279 323L280 324L279 323M283 323L284 324L283 323z"/>
<path style="fill:#909090; stroke:none;" d="M284 323L285 324L284 323M276 324L277 325L276 324z"/>
<path style="fill:#afafaf; stroke:none;" d="M277 324L278 325L277 324M285 324L286 325L285 324z"/>
<path style="fill:#909090; stroke:none;" d="M286 324L287 325L286 324M274 325L275 326L274 325z"/>
<path style="fill:#afafaf; stroke:none;" d="M275 325L276 326L275 325M287 325L288 326L287 325z"/>
<path style="fill:#909090; stroke:none;" d="M288 325L289 326L288 325M272 326L273 327L272 326z"/>
<path style="fill:#afafaf; stroke:none;" d="M273 326L274 327L273 326M289 326L290 327L289 326z"/>
<path style="fill:#909090; stroke:none;" d="M290 326L291 327L290 326M270 327L271 328L270 327z"/>
<path style="fill:#afafaf; stroke:none;" d="M271 327L272 328L271 327M291 327L292 328L291 327z"/>
<path style="fill:#909090; stroke:none;" d="M292 327L293 328L292 327M268 328L269 329L268 328z"/>
<path style="fill:#afafaf; stroke:none;" d="M293 328L294 329L293 328z"/>
<path style="fill:#909090; stroke:none;" d="M294 328L295 329L294 328M266 329L267 330L266 329z"/>
<path style="fill:#afafaf; stroke:none;" d="M295 329L296 330L295 329z"/>
<path style="fill:#909090; stroke:none;" d="M296 329L297 330L296 329M264 330L265 331L264 330z"/>
<path style="fill:#afafaf; stroke:none;" d="M297 330L298 331L297 330z"/>
<path style="fill:#909090; stroke:none;" d="M298 330L299 331L298 330M262 331L263 332L262 331z"/>
<path style="fill:#afafaf; stroke:none;" d="M263 331L264 332L263 331M299 331L300 332L299 331z"/>
<path style="fill:#909090; stroke:none;" d="M300 331L301 332L300 331M260 332L261 333L260 332z"/>
<path style="fill:#afafaf; stroke:none;" d="M301 332L302 333L301 332z"/>
<path style="fill:#909090; stroke:none;" d="M302 332L303 333L302 332M258.667 333.333L259.333 333.667L258.667 333.333M303.667 333.333L304.333 333.667L303.667 333.333M256 334L257 335L256 334z"/>
<path style="fill:#afafaf; stroke:none;" d="M257 334L258 335L257 334M305 334L306 335L305 334z"/>
<path style="fill:#909090; stroke:none;" d="M306 334L307 335L306 334M254.667 335.333L255.333 335.667L254.667 335.333M307.667 335.333L308.333 335.667L307.667 335.333M252 336L253 337L252 336z"/>
<path style="fill:#afafaf; stroke:none;" d="M253 336L254 337L253 336M309 336L310 337L309 336z"/>
<path style="fill:#909090; stroke:none;" d="M310 336L311 337L310 336M250.667 337.333L251.333 337.667L250.667 337.333z"/>
<path style="fill:#afafaf; stroke:none;" d="M311 337L312 338L311 337z"/>
<path style="fill:#909090; stroke:none;" d="M312 337L313 338L312 337M248 338L249 339L248 338z"/>
<path style="fill:#afafaf; stroke:none;" d="M249 338L250 339L249 338M313 338L314 339L313 338z"/>
<path style="fill:#909090; stroke:none;" d="M314 338L315 339L314 338M246.667 339.333L247.333 339.667L246.667 339.333M315.667 339.333L316.333 339.667L315.667 339.333M244 340L245 341L244 340z"/>
<path style="fill:#afafaf; stroke:none;" d="M245 340L246 341L245 340z"/>
<path style="fill:#909090; stroke:none;" d="M317.667 340.333L318.333 340.667L317.667 340.333M242.667 341.333L243.333 341.667L242.667 341.333z"/>
<path style="fill:#afafaf; stroke:none;" d="M319 341L320 342L319 341z"/>
<path style="fill:#909090; stroke:none;" d="M320 341L321 342L320 341M240 342L241 343L240 342z"/>
<path style="fill:#afafaf; stroke:none;" d="M241 342L242 343L241 342M321 342L322 343L321 342z"/>
<path style="fill:#909090; stroke:none;" d="M322 342L323 343L322 342M238.667 343.333L239.333 343.667L238.667 343.333M323.667 343.333L324.333 343.667L323.667 343.333M236.667 344.333L237.333 344.667L236.667 344.333M325.667 344.333L326.333 344.667L325.667 344.333M234.667 345.333L235.333 345.667L234.667 345.333M327 345L328 346L327 345M232.667 346.333L233.333 346.667L232.667 346.333z"/>
<path style="fill:#afafaf; stroke:none;" d="M329 346L330 347L329 346z"/>
<path style="fill:#909090; stroke:none;" d="M330 346L331 347L330 346M230.667 347.333L231.333 347.667L230.667 347.333M331.667 347.333L332.333 347.667L331.667 347.333M228.667 348.333L229.333 348.667L228.667 348.333M333.667 348.333L334.333 348.667L333.667 348.333M226 349L227 350L226 349z"/>
<path style="fill:#afafaf; stroke:none;" d="M227 349L228 350L227 349z"/>
<path style="fill:#909090; stroke:none;" d="M335 349L336 350L335 349M224.667 350.333L225.333 350.667L224.667 350.333z"/>
<path style="fill:#afafaf; stroke:none;" d="M336 350L337 351L336 350z"/>
<path style="fill:#909090; stroke:none;" d="M337.667 350.333L338.333 350.667L337.667 350.333M222.667 351.333L223.333 351.667L222.667 351.333M339 351L339 352L342 353L339 351M221 352L222 353L221 352z"/>
<path style="fill:#afafaf; stroke:none;" d="M340 352L341 353L340 352M220 353L221 354L220 353M342 353L343 354L342 353z"/>
<path style="fill:#909090; stroke:none;" d="M343.667 353.333L344.333 353.667L343.667 353.333z"/>
<path style="fill:#afafaf; stroke:none;" d="M218 354L219 355L218 354z"/>
<path style="fill:#909090; stroke:none;" d="M345 354L346 355L345 354z"/>
<path style="fill:#afafaf; stroke:none;" d="M212 355L213 356L212 355M216 355L217 356L216 355M346 355L347 356L346 355M350 355L351 356L350 355M348.667 356.333L349.333 356.667L348.667 356.333z"/>
</svg>
