<svg width="216.2px" height="84.8px" xmlns="http://www.w3.org/2000/svg" viewBox="141.9 32.6 216.2 84.8" style="background: rgba(0, 0, 0, 0);" preserveAspectRatio="xMidYMid"><defs><filter id="editing-extrusion" x="-100%" y="-100%" width="300%" height="300%"><feFlood result="color1" flood-color="#444"></feFlood><feConvolveMatrix order="8,8" divisor="1" kernelMatrix="1 0 0 0 0 0 0 0 0 1 0 0 0 0 0 0 0 0 1 0 0 0 0 0 0 0 0 1 0 0 0 0 0 0 0 0 1 0 0 0 0 0 0 0 0 1 0 0 0 0 0 0 0 0 1 0 0 0 0 0 0 0 0 1" in="SourceAlpha" result="extrude"></feConvolveMatrix><feComposite in="color1" in2="extrude" result="comp-extrude" operator="in"></feComposite><feOffset dx="4" dy="4" in="comp-extrude" result="offset-extrude"></feOffset><feMerge><feMergeNode in="offset-extrude"></feMergeNode><feMergeNode in="SourceGraphic"></feMergeNode></feMerge></filter></defs><g filter="url(#editing-extrusion)"><g transform="translate(136.8499957025051, 104.44000053405762)"><path d="M14.34 0L0.38 0L8.51-42.24L22.59-42.24L14.34 0ZM39.49 12.80L42.18-0.19L42.18-0.19Q40.06 1.28 36.70 1.28L36.70 1.28L36.70 1.28Q33.34 1.28 30.88 0.51L30.88 0.51L30.88 0.51Q28.42-0.26 26.88-1.92L26.88-1.92L26.88-1.92Q23.94-5.12 23.94-12.61L23.94-12.61L23.94-12.61Q23.94-22.08 29.57-28.03L29.57-28.03L29.57-28.03Q35.07-33.92 44.16-33.92L44.16-33.92L44.16-33.92Q47.42-33.92 49.79-32.83L49.79-32.83L61.12-33.92L52.42 11.52L39.49 12.80ZM38.40-2.69L38.40-2.69L38.40-2.69Q40.38-2.69 41.86-4.70L41.86-4.70L41.86-4.70Q43.33-6.72 43.97-10.18L43.97-10.18L47.36-28.93L47.36-28.93Q46.02-30.08 44.45-30.08L44.45-30.08L44.45-30.08Q42.88-30.08 41.95-29.57L41.95-29.57L41.95-29.57Q41.02-29.06 40.32-27.90L40.32-27.90L40.32-27.90Q38.46-24.90 36.99-16.19L36.99-16.19L36.99-16.19Q36.16-11.01 36.16-6.85L36.16-6.85L36.16-6.85Q36.16-2.69 38.40-2.69ZM62.66-3.07L62.66-3.07L70.59-44.80L83.58-46.08L81.60-36.29L81.60-36.29Q80.90-33.28 80-31.17L80-31.17L80-31.17Q81.41-32.96 84.48-33.66L84.48-33.66L84.48-33.66Q85.38-33.92 86.46-33.92L86.46-33.92L86.46-33.92Q92.42-33.92 95.68-30.30L95.68-30.30L95.68-30.30Q98.94-26.69 98.94-19.71L98.94-19.71L98.94-19.71Q98.94-10.62 93.76-4.93L93.76-4.93L93.76-4.93Q88.19 1.28 78.08 1.28L78.08 1.28L78.08 1.28Q71.10 1.28 65.86-1.02L65.86-1.02L65.86-1.02Q64-1.86 62.66-3.07ZM78.91-22.40L75.52-3.65L75.52-3.65Q76.86-2.50 78.53-2.50L78.53-2.50L78.53-2.50Q80.19-2.50 81.15-3.14L81.15-3.14L81.15-3.14Q82.11-3.78 82.82-5.06L82.82-5.06L82.82-5.06Q84.74-8.51 86.27-19.07L86.27-19.07L86.27-19.07Q86.72-22.08 86.72-25.09L86.72-25.09L86.72-25.09Q86.72-28.10 86.05-29.06L86.05-29.06L86.05-29.06Q85.38-30.02 84.10-30.02L84.10-30.02L84.10-30.02Q80.19-30.02 78.91-22.40L78.91-22.40ZM105.57-1.92L105.57-1.92L105.57-1.92Q104.06-3.58 103.39-6.21L103.39-6.21L103.39-6.21Q102.72-8.83 102.72-13.12L102.72-13.12L102.72-13.12Q102.72-17.41 104.19-21.31L104.19-21.31L104.19-21.31Q105.66-25.22 108.35-28.03L108.35-28.03L108.35-28.03Q113.86-33.92 122.94-33.92L122.94-33.92L122.94-33.92Q126.21-33.92 128.58-32.83L128.58-32.83L139.52-33.92L134.78-8.96L134.78-8.96Q134.59-8.19 134.59-6.78L134.59-6.78L134.59-6.78Q134.59-5.38 135.46-4.48L135.46-4.48L135.46-4.48Q136.32-3.58 137.60-3.46L137.60-3.46L137.60-3.46Q136.96-1.28 134.62 0L134.62 0L134.62 0Q132.29 1.28 129.66 1.28L129.66 1.28L129.66 1.28Q127.04 1.28 125.28 0.29L125.28 0.29L125.28 0.29Q123.52-0.70 123.01-2.37L123.01-2.37L123.01-2.37Q121.98-0.77 119.81 0.26L119.81 0.26L119.81 0.26Q117.63 1.28 114.72 1.28L114.72 1.28L114.72 1.28Q111.81 1.28 109.44 0.51L109.44 0.51L109.44 0.51Q107.07-0.26 105.57-1.92ZM119.07-27.90L119.07-27.90L119.07-27.90Q118.34-26.75 117.70-24.80L117.70-24.80L117.70-24.80Q117.06-22.85 116-17.63L116-17.63L116-17.63Q114.94-12.42 114.94-8.70L114.94-8.70L114.94-8.70Q114.94-4.99 115.52-3.90L115.52-3.90L115.52-3.90Q116.10-2.82 117.12-2.82L117.12-2.82L117.12-2.82Q119.17-2.82 120.67-4.77L120.67-4.77L120.67-4.77Q122.18-6.72 122.75-10.18L122.75-10.18L126.14-28.93L126.14-28.93Q124.80-30.08 123.23-30.08L123.23-30.08L123.23-30.08Q121.66-30.08 120.74-29.57L120.74-29.57L120.74-29.57Q119.81-29.06 119.07-27.90ZM158.27-3.52L158.27-3.52L158.27-3.52Q156.29 1.28 149.95 1.28L149.95 1.28L149.95 1.28Q146.75 1.28 144.70-0.96L144.70-0.96L144.70-0.96Q143.04-2.82 143.04-4.93L143.04-4.93L143.04-4.93Q143.04-9.73 145.28-20.22L145.28-20.22L149.95-44.80L162.94-46.08L156.74-13.70L156.74-13.70Q155.65-8.96 155.65-7.30L155.65-7.30L155.65-7.30Q155.65-3.65 158.27-3.52ZM176.03 0.64L176.03 0.64L176.03 0.64Q172.99 0 171.42-0.29L171.42-0.29L171.42-0.29Q169.86-0.58 168.03-0.58L168.03-0.58L168.03-0.58Q166.21-0.58 164.42 0.06L164.42 0.06L164.42 0.06Q163.46-0.51 162.85-1.66L162.85-1.66L162.85-1.66Q162.24-2.82 162.24-4.61L162.24-4.61L162.24-4.61Q162.24-8.38 166.08-11.26L166.08-11.26L182.34-22.98L182.34-22.98Q177.79-24.26 173.66-24.26L173.66-24.26L173.66-24.26Q169.54-24.26 168.06-21.44L168.06-21.44L168.06-21.44Q165.89-24 165.89-28.03L165.89-28.03L165.89-28.03Q165.89-30.72 167.84-32.48L167.84-32.48L167.84-32.48Q169.79-34.24 173.89-34.24L173.89-34.24L173.89-34.24Q176.19-34.24 178.27-33.95L178.27-33.95L178.27-33.95Q180.35-33.66 182.21-33.41L182.21-33.41L185.66-32.90L185.66-32.90Q187.33-32.64 189.02-32.64L189.02-32.64L189.02-32.64Q190.72-32.64 192-33.34L192-33.34L192-33.34Q193.66-31.81 193.66-29.70L193.66-29.70L193.66-29.70Q193.66-26.37 189.57-22.91L189.57-22.91L173.38-10.82L173.38-10.82Q178.37-9.34 180.93-9.34L180.93-9.34L180.93-9.34Q186.30-9.34 188.61-11.90L188.61-11.90L188.61-11.90Q190.40-9.86 190.40-6.30L190.40-6.30L190.40-6.30Q190.40-2.75 188.10-0.74L188.10-0.74L188.10-0.74Q185.79 1.28 181.63 1.28L181.63 1.28L181.63 1.28Q179.07 1.28 176.03 0.64ZM208.29 0.64L208.29 0.64L208.29 0.64Q205.25 0 203.68-0.29L203.68-0.29L203.68-0.29Q202.11-0.58 200.29-0.58L200.29-0.58L200.29-0.58Q198.46-0.58 196.67 0.06L196.67 0.06L196.67 0.06Q195.71-0.51 195.10-1.66L195.10-1.66L195.10-1.66Q194.50-2.82 194.50-4.61L194.50-4.61L194.50-4.61Q194.50-8.38 198.34-11.26L198.34-11.26L214.59-22.98L214.59-22.98Q210.05-24.26 205.92-24.26L205.92-24.26L205.92-24.26Q201.79-24.26 200.32-21.44L200.32-21.44L200.32-21.44Q198.14-24 198.14-28.03L198.14-28.03L198.14-28.03Q198.14-30.72 200.10-32.48L200.10-32.48L200.10-32.48Q202.05-34.24 206.14-34.24L206.14-34.24L206.14-34.24Q208.45-34.24 210.53-33.95L210.53-33.95L210.53-33.95Q212.61-33.66 214.46-33.41L214.46-33.41L217.92-32.90L217.92-32.90Q219.58-32.64 221.28-32.64L221.28-32.64L221.28-32.64Q222.98-32.64 224.26-33.34L224.26-33.34L224.26-33.34Q225.92-31.81 225.92-29.70L225.92-29.70L225.92-29.70Q225.92-26.37 221.82-22.91L221.82-22.91L205.63-10.82L205.63-10.82Q210.62-9.34 213.18-9.34L213.18-9.34L213.18-9.34Q218.56-9.34 220.86-11.90L220.86-11.90L220.86-11.90Q222.66-9.86 222.66-6.30L222.66-6.30L222.66-6.30Q222.66-2.75 220.35-0.74L220.35-0.74L220.35-0.74Q218.05 1.28 213.89 1.28L213.89 1.28L213.89 1.28Q211.33 1.28 208.29 0.64Z" fill="#ccc"></path></g></g><style>text {
  font-size: 64px;
  font-family: Arial Black;
  dominant-baseline: central;
  text-anchor: middle;
}</style></svg>